<svg id="Layer_1" data-name="Layer 1" xmlns="http://www.w3.org/2000/svg" xmlns:xlink="http://www.w3.org/1999/xlink" viewBox="0 0 427.3 61.58"><defs><style>.cls-1{fill:none;}.cls-2{clip-path:url(#clip-path);}.cls-3{fill:url(#linear-gradient);}</style><clipPath id="clip-path"><path class="cls-1" d="M285.46,49.31a4.34,4.34,0,0,0,8.66,0,4.33,4.33,0,0,0-8.66,0M3.33,30.57c-1.46,5.27,10,26,14.27,29.06C19.68,61.12,23.54,48.7,25.34,44s7.37-3.77,7.37-3.77S19.76,23,10.69,23C7.55,23,4.87,25,3.33,30.57m139.24-3.92A9.06,9.06,0,0,1,152,34.91H132.79c.73-5.16,4.69-8.26,9.78-8.26m-15.8,10.57c0,9.78,7,16.19,15.8,16.19,5,0,9.65-1.85,12.62-5.68a2.68,2.68,0,0,0-.53-3.77,3.08,3.08,0,0,0-4,.79c-2.11,2.32-4.16,3.24-7.86,3.24-5.22,0-9.25-3.24-10-8.39h22.73a2.37,2.37,0,0,0,2.38-2.38c0-9.78-6.54-16-15.33-16s-15.8,6.21-15.8,16m45.87-10.7V24.6a3,3,0,1,0-6,0V50a3,3,0,1,0,6,0V36.1c0-6.55,4.36-9,8.72-9s6.81,3,6.81,8.19V50a3,3,0,1,0,6,0V34.91c0-8.66-4.22-13.68-11.89-13.68-3.37,0-7.8,1.58-9.65,5.29m58.62,10.7a9.74,9.74,0,0,1,10.05-10.11c5,0,10.24,3.5,10.24,10.11a10.15,10.15,0,1,1-20.29,0m-6.14.07c0,9.78,7.2,16.12,15.66,16.12,4.3,0,8.79-1.92,10.84-5.42v2a3,3,0,1,0,6,0V24.6a3,3,0,1,0-6,0v1.92c-2.05-3.51-6.54-5.29-10.84-5.29-8.46,0-15.66,6.21-15.66,16.06m76.93-.07c0,9.78,7.53,16.19,16.32,16.19a16.39,16.39,0,0,0,9.78-3.11,3,3,0,0,0,.33-4.29c-1.12-1.26-2.77-1.19-4.23-.26a10.1,10.1,0,0,1-5.88,1.85,10.28,10.28,0,1,1,0-20.56,10,10,0,0,1,5.88,1.85,3.27,3.27,0,0,0,4.23-.26,3,3,0,0,0-.33-4.3,17.08,17.08,0,0,0-9.78-3.1c-8.72,0-16.26,6.34-16.32,16m39.92,0a10.18,10.18,0,0,1,20.35,0,10.18,10.18,0,1,1-20.35,0m-6,0a15.71,15.71,0,0,0,16.12,16.19c8.79,0,16.2-6.41,16.2-16.19s-7.41-16-16.2-16S336,27.44,336,37.22m56.24-16c-2.51.2-6.87,1.85-8.52,5.29V24.6a3,3,0,1,0-6,0V50a3,3,0,1,0,6,0V36.1c0-6.48,4.29-9.12,8.59-9.12,4,0,6.67,3.17,6.67,8.26V50a3,3,0,1,0,6,0V36.1c0-5.16,3.1-9.06,8.19-9,4.43,0,7.07,3.11,7.07,8.19V50a3,3,0,1,0,6,0V34.91c0-8.66-4.17-13.68-11.9-13.68a11.4,11.4,0,0,0-10.71,6.34,10,10,0,0,0-8.06-6.14,13.32,13.32,0,0,0-2.49-.23l-.88,0M207.14,13v8.92h-3.3a2.55,2.55,0,1,0,0,5.09h3.3V50a3,3,0,1,0,6,0V27h4.37a2.55,2.55,0,1,0,0-5.09h-4.37V13a3,3,0,1,0-6,0M91,37.22a9.68,9.68,0,0,1,10-10.11c5,0,10.24,3.5,10.24,10.11a9.86,9.86,0,0,1-10.24,10.31c-5.55,0-10-4.23-10-10.31M111.24,7.81V26.52c-2-3.51-6.34-5.29-10.84-5.29-8.52,0-15.59,6.21-15.59,16.06S92,53.41,100.47,53.41c4.29,0,8.72-1.92,10.77-5.42v2a3,3,0,1,0,6,0V7.81a3,3,0,1,0-6,0m157.63,0V50a3,3,0,1,0,6,0V7.81a3,3,0,1,0-6,0M1.59,24.2s14-6.77,24.08,2.33C36.86,36.6,43.3,62.58,45.78,59.94,70.47,33.67,31.31,1,16.78,1-1,1,1.59,24.2,1.59,24.2M34.9,4.58s10.37,9.76,13.62,13.24c6,6.46,8.11,25.45,8.11,25.45s10.76-23.13.5-36.3c-3.55-4.56-7.67-6-11.38-6A20.67,20.67,0,0,0,34.9,4.58"/></clipPath><linearGradient id="linear-gradient" x1="-742.53" y1="568.87" x2="-741.53" y2="568.87" gradientTransform="matrix(424.84, 0, 0, -424.84, 315457.99, 241708.42)" gradientUnits="userSpaceOnUse"><stop offset="0" stop-color="#fff"/><stop offset="0.54" stop-color="#fff"/><stop offset="1" stop-color="#fff"/></linearGradient></defs><g class="cls-2"><rect class="cls-3" x="-1" y="1" width="427.3" height="61.58"/></g></svg>